<svg id="Layer_1" data-name="Layer 1" xmlns="http://www.w3.org/2000/svg" viewBox="0 0 299.736 91.77"><defs><style>.cls-1,.cls-2{fill:none;}.cls-1,.cls-2,.cls-3,.cls-4{stroke:#000;stroke-miterlimit:10;}.cls-1{stroke-width:1.5px;}.cls-3{fill:#398f00;}.cls-4{fill:#d60b00;}</style></defs><rect class="cls-1" x="19.393" y="18.441" width="11.581" height="66.176" rx="2.375" transform="translate(-7.987 -20.294) rotate(7.32)"/><rect class="cls-1" x="22.219" y="27.048" width="11.581" height="4.963" transform="translate(-10.767 -20.834) rotate(7.32)"/><rect class="cls-1" x="16.75" y="69.897" width="11.581" height="4.412" transform="translate(-5.387 -19.79) rotate(7.32)"/><rect class="cls-1" x="21.58" y="1.12" width="16.085" height="66.176" rx="2.799"/><rect class="cls-1" x="21.58" y="9.547" width="16.085" height="4.963"/><rect class="cls-1" x="21.58" y="52.745" width="16.085" height="4.412"/><rect class="cls-1" x="70.773" y="59.926" width="8.456" height="41.298" rx="1.603" transform="translate(140.818 -11.932) rotate(90)"/><rect class="cls-1" x="84.615" y="79.026" width="8.456" height="3.097" transform="translate(154.66 -25.774) rotate(90)"/><rect class="cls-1" x="57.829" y="79.198" width="8.456" height="2.753" transform="translate(127.874 1.012) rotate(90)"/><path class="cls-2" d="M127.691,83.6c-.3,0-.551-.328-.551-.733V79.211c0-.405.247-.733.551-.733h.184V77.26H106.121v1.215h.184c.3,0,.551.328.551.733V82.86c0,.405-.246.733-.551.733h-.184V84.8h21.754V83.6Z" transform="translate(-14.757 -17.506)"/><line class="cls-2" x1="91.364" y1="60.97" x2="113.118" y2="60.973"/><line class="cls-2" x1="91.364" y1="66.087" x2="112.934" y2="66.09"/><path class="cls-2" d="M126.263,48.362c-.306,0-.555-.368-.555-.821V43.446c0-.454.249-.822.555-.822h.185V41.259h-21.9v1.362h.185c.306,0,.555.368.555.821v4.095c0,.454-.249.822-.555.822h-.185v1.355h21.9V48.362Z" transform="translate(-14.757 -17.506)"/><line class="cls-2" x1="89.792" y1="25.115" x2="111.691" y2="25.119"/><line class="cls-2" x1="89.792" y1="30.853" x2="111.506" y2="30.856"/><path class="cls-2" d="M127.223,74.945c-.285,0-.516-.324-.516-.723V70.243c0-.4.231-.724.516-.724h.131v-1.29H106.588c-.645,0-1.168.733-1.168,1.637v4.723c0,.9.523,1.637,1.168,1.637h20.766V74.945Z" transform="translate(-14.757 -17.506)"/><path class="cls-2" d="M127.714,69.514H107.189a.3.3,0,0,0-.273.314v4.8a.3.3,0,0,0,.273.314h20.525" transform="translate(-14.757 -17.506)"/><path class="cls-2" d="M106.4,57.844c.254,0,.461-.342.461-.765V52.872c0-.422-.207-.765-.461-.765h-.118V50.743H124.84c.576,0,1.043.775,1.043,1.731v4.993c0,.956-.467,1.732-1.043,1.732H106.282V57.844Z" transform="translate(-14.757 -17.506)"/><path class="cls-2" d="M105.893,52.1h18.342c.134,0,.244.148.244.332v5.074c0,.183-.11.331-.244.331H105.893" transform="translate(-14.757 -17.506)"/><path class="cls-2" d="M126.363,66.11a.585.585,0,0,1-.519-.634V61.991a.585.585,0,0,1,.519-.634h.132v-1.13H105.6a1.324,1.324,0,0,0-1.175,1.434V65.8a1.324,1.324,0,0,0,1.175,1.434H126.5V66.11Z" transform="translate(-14.757 -17.506)"/><path class="cls-2" d="M126.806,61.353H115.735a.275.275,0,0,0-.274.275v4.2a.275.275,0,0,0,.274.275h11.071" transform="translate(-14.757 -17.506)"/><path class="cls-2" d="M116.806,67.232H115.28a1.1,1.1,0,0,1-1.1-1.1V61.323a1.1,1.1,0,0,1,1.1-1.1h1.414" transform="translate(-14.757 -17.506)"/><path class="cls-3" d="M123.838,23.112a6.787,6.787,0,0,1-1.329.26,3.678,3.678,0,0,1-1.392-.162,2.534,2.534,0,0,0-.781-.134,2.342,2.342,0,0,0-2.268,1.29,3.573,3.573,0,0,0-.226.587c-.006.05.035.089.222.215a2.8,2.8,0,0,0,.727.366,4.3,4.3,0,0,0,.971.238,3.658,3.658,0,0,0,2.073-.352,3.224,3.224,0,0,0,1.3-1,5.124,5.124,0,0,0,.74-1.243l.03-.094Z" transform="translate(-14.757 -17.506)"/><path class="cls-4" d="M116.85,22.834a1.238,1.238,0,0,1-.352.81,1.015,1.015,0,0,1-.7.309,1.063,1.063,0,0,0-.165.024,1.985,1.985,0,0,0,.179.2,4,4,0,0,1,1.265,2.738,4.942,4.942,0,0,1-.014.775c-.008.015-.05-.064-.128-.234a4.663,4.663,0,0,0-.385-.7,5.044,5.044,0,0,0-1.567-1.476,4.956,4.956,0,0,0-3.159-.446,5.63,5.63,0,0,0-1.352.571,5.455,5.455,0,0,0-1.587,1.451,7.1,7.1,0,0,0-1.079,2.467,8.841,8.841,0,0,0-.164,1.884,10.335,10.335,0,0,0,.642,3.412,11.542,11.542,0,0,0,.669,1.644,6.756,6.756,0,0,0,1.155,1.465,3.8,3.8,0,0,0,1.237.724,3.45,3.45,0,0,0,1.594.148l.287-.032.139.165a3.357,3.357,0,0,0,1.463,1.053,2.075,2.075,0,0,0,.4.133,4.416,4.416,0,0,0,2-.051,9.531,9.531,0,0,0,2.334-1.083,12.958,12.958,0,0,0,2.93-2.5,8.108,8.108,0,0,0,1.238-2.215,4.223,4.223,0,0,0,.255-.954,5.153,5.153,0,0,0-.175-2.807,5.71,5.71,0,0,0-.358-.833,6,6,0,0,0-.924-1.144,3.805,3.805,0,0,0-1.259-.761,4.4,4.4,0,0,0-1.272-.32,4.2,4.2,0,0,0-2.319.423,2.258,2.258,0,0,1-.338.13c-.009-.007,0-.051.017-.112a8.241,8.241,0,0,0,.21-.821,5.942,5.942,0,0,0,.114-1.248,6.563,6.563,0,0,0-.63-2.391C116.9,22.87,116.85,22.774,116.85,22.834Z" transform="translate(-14.757 -17.506)"/><path d="M147.266,78.843V84.8h-4.625V30.028h4.625V54.886h.145a14.711,14.711,0,0,1,5.51-5.907,16.068,16.068,0,0,1,14.127-.759,12.975,12.975,0,0,1,4.735,3.667,16.888,16.888,0,0,1,2.963,5.746,25.512,25.512,0,0,1,1.029,7.479,28.093,28.093,0,0,1-1.174,8.364,19.55,19.55,0,0,1-3.343,6.487A15.108,15.108,0,0,1,166,84.172a15.646,15.646,0,0,1-6.92,1.5,12.533,12.533,0,0,1-11.671-6.829Zm0-9.431a13.209,13.209,0,0,0,.849,4.752,12.338,12.338,0,0,0,2.367,3.9,11.01,11.01,0,0,0,3.668,2.655,11.354,11.354,0,0,0,4.751.976,10.664,10.664,0,0,0,5.022-1.174,10.97,10.97,0,0,0,3.813-3.343,16.2,16.2,0,0,0,2.42-5.239,25.755,25.755,0,0,0,.849-6.865,20.215,20.215,0,0,0-.794-5.871,13.352,13.352,0,0,0-2.258-4.463,9.8,9.8,0,0,0-3.541-2.818,10.79,10.79,0,0,0-4.644-.976,12.277,12.277,0,0,0-5.2,1.066,11.728,11.728,0,0,0-3.938,2.909,12.9,12.9,0,0,0-2.494,4.318,15.785,15.785,0,0,0-.867,5.257Z" transform="translate(-14.757 -17.506)"/><path d="M206.191,52.538A6.909,6.909,0,0,0,202,51.345a7.173,7.173,0,0,0-3.252.706,8.219,8.219,0,0,0-2.476,1.9,11.477,11.477,0,0,0-1.807,2.765,19.331,19.331,0,0,0-1.191,3.269,23.651,23.651,0,0,0-.65,3.433,28.84,28.84,0,0,0-.2,3.288V84.8h-4.588v-37h4.588v7.913h.145a16.448,16.448,0,0,1,1.644-3.631,11.3,11.3,0,0,1,2.294-2.71,9.59,9.59,0,0,1,2.837-1.68,9.088,9.088,0,0,1,3.234-.579,12.57,12.57,0,0,1,2,.145,7.666,7.666,0,0,1,1.608.434Z" transform="translate(-14.757 -17.506)"/><path d="M236.967,84.8V78.228h-.144a13.572,13.572,0,0,1-4.933,5.492,13.058,13.058,0,0,1-7.063,1.952A14.412,14.412,0,0,1,220,84.913a10.366,10.366,0,0,1-3.651-2.15,9.484,9.484,0,0,1-2.312-3.342,11.092,11.092,0,0,1-.813-4.3,10.571,10.571,0,0,1,3.108-8q3.106-2.979,9.394-3.884l11.237-1.626q0-10.657-8.274-10.659a18.089,18.089,0,0,0-12,4.733V50.623a15.612,15.612,0,0,1,2.619-1.5,24.08,24.08,0,0,1,3.09-1.156,25.179,25.179,0,0,1,3.342-.759,21.373,21.373,0,0,1,3.342-.271q6.18,0,9.341,3.469t3.161,10.333V84.8Zm-9.539-17.958a28.961,28.961,0,0,0-4.263.9,8.752,8.752,0,0,0-2.927,1.463,5.449,5.449,0,0,0-1.7,2.277A9.017,9.017,0,0,0,218,74.832a7.107,7.107,0,0,0,.523,2.746,6.153,6.153,0,0,0,1.518,2.185,6.865,6.865,0,0,0,2.422,1.428,9.615,9.615,0,0,0,3.233.506,10.658,10.658,0,0,0,8.075-3.541,12.068,12.068,0,0,0,2.35-3.975,14.481,14.481,0,0,0,.848-5.022V65.51Z" transform="translate(-14.757 -17.506)"/><path d="M273.815,52.538a6.909,6.909,0,0,0-4.191-1.193,7.173,7.173,0,0,0-3.252.706,8.219,8.219,0,0,0-2.476,1.9,11.477,11.477,0,0,0-1.807,2.765,19.331,19.331,0,0,0-1.191,3.269,23.651,23.651,0,0,0-.65,3.433,28.84,28.84,0,0,0-.2,3.288V84.8H255.46v-37h4.588v7.913h.145a16.448,16.448,0,0,1,1.644-3.631,11.3,11.3,0,0,1,2.294-2.71,9.59,9.59,0,0,1,2.837-1.68,9.088,9.088,0,0,1,3.234-.579,12.57,12.57,0,0,1,2,.145,7.666,7.666,0,0,1,1.608.434Z" transform="translate(-14.757 -17.506)"/><path d="M296.968,91.525a22.052,22.052,0,0,1-4.986,8.039,9.666,9.666,0,0,1-6.829,2.62,10.493,10.493,0,0,1-3.36-.469V97.379a9.654,9.654,0,0,0,1.607.433,9.42,9.42,0,0,0,1.645.145A5.922,5.922,0,0,0,289,96.529a11.446,11.446,0,0,0,2.908-4.317l3.216-7.588L280.889,47.805h5.131l10.587,29.3c.145.386.283.825.416,1.32s.258.981.379,1.462h.181c.12-.409.235-.825.342-1.246a13.216,13.216,0,0,1,.453-1.391l11.237-29.448h4.878Z" transform="translate(-14.757 -17.506)"/><path d="M74.415,106.158a3.76,3.76,0,0,1-2.751-.981A4.055,4.055,0,0,1,71.7,99.8a3.925,3.925,0,0,1,2.81-.982,3.717,3.717,0,0,1,2.734.982,3.483,3.483,0,0,1,.991,2.594,3.7,3.7,0,0,1-1.021,2.754A3.807,3.807,0,0,1,74.415,106.158Zm.055-5.687a1.44,1.44,0,0,0-1.19.526,2.325,2.325,0,0,0-.424,1.49q0,2.017,1.627,2.017,1.551,0,1.552-2.071Q76.035,100.471,74.47,100.471Z" transform="translate(-14.757 -17.506)"/><path d="M92.392,97.278a2.191,2.191,0,0,0-.8-.164q-1.039,0-1.039,1.128v.745h1.6v1.593h-1.6v5.407H88.4V100.58H87.224V98.987H88.4v-.868a2.522,2.522,0,0,1,.779-1.928,2.976,2.976,0,0,1,2.12-.731,3.724,3.724,0,0,1,1.093.137Z" transform="translate(-14.757 -17.506)"/><path d="M120.143,103.1h-4.566q.11,1.524,1.921,1.524a3.754,3.754,0,0,0,2.03-.547v1.559a5.337,5.337,0,0,1-2.522.519,3.259,3.259,0,0,1-3.569-3.561,3.745,3.745,0,0,1,1.012-2.762,3.372,3.372,0,0,1,2.488-1.019,3.057,3.057,0,0,1,2.369.91,3.5,3.5,0,0,1,.837,2.467Zm-2-1.327q0-1.5-1.216-1.5a1.16,1.16,0,0,0-.9.431,1.95,1.95,0,0,0-.462,1.073Z" transform="translate(-14.757 -17.506)"/><path d="M136.493,98.987l-2.6,7h-2.46l-2.482-7h2.311l1.216,4.314a6.291,6.291,0,0,1,.24,1.244h.027a7.044,7.044,0,0,1,.253-1.2l1.244-4.355Z" transform="translate(-14.757 -17.506)"/><path d="M151.969,103.1H147.4q.11,1.524,1.921,1.524a3.752,3.752,0,0,0,2.03-.547v1.559a5.337,5.337,0,0,1-2.522.519,3.259,3.259,0,0,1-3.569-3.561,3.745,3.745,0,0,1,1.012-2.762,3.372,3.372,0,0,1,2.488-1.019,3.06,3.06,0,0,1,2.37.91,3.5,3.5,0,0,1,.837,2.467Zm-2-1.327q0-1.5-1.217-1.5a1.16,1.16,0,0,0-.9.431,1.95,1.95,0,0,0-.462,1.073Z" transform="translate(-14.757 -17.506)"/><path d="M166.221,100.936a1.868,1.868,0,0,0-.91-.212,1.311,1.311,0,0,0-1.1.515,2.252,2.252,0,0,0-.4,1.406v3.342h-2.16v-7h2.16v1.3h.028a1.868,1.868,0,0,1,1.845-1.422,1.41,1.41,0,0,1,.534.082Z" transform="translate(-14.757 -17.506)"/><path d="M182.85,98.987l-2.843,7.561q-1.026,2.727-3.09,2.727a3.969,3.969,0,0,1-1.292-.177v-1.723a1.812,1.812,0,0,0,.936.253,1.169,1.169,0,0,0,1.162-.786l.37-.868-2.844-6.987h2.392l1.306,4.259a5.484,5.484,0,0,1,.191.937h.028a6.519,6.519,0,0,1,.225-.923l1.32-4.273Z" transform="translate(-14.757 -17.506)"/><path d="M196.378,105.905a3.192,3.192,0,0,1-1.443.253q-2.283,0-2.283-2.372V100.58h-1.135V98.987h1.135v-1.51l2.153-.616v2.126h1.573v1.593h-1.573v2.83q0,1.095.869,1.094a1.466,1.466,0,0,0,.7-.2Z" transform="translate(-14.757 -17.506)"/><path d="M212.714,105.987H210.56v-3.978q0-1.539-1.121-1.538a1.146,1.146,0,0,0-.929.43,1.656,1.656,0,0,0-.356,1.094v3.992h-2.16V95.624h2.16v4.4h.027a2.457,2.457,0,0,1,2.154-1.21q2.379,0,2.379,2.872Z" transform="translate(-14.757 -17.506)"/><path d="M223.917,97.88a1.271,1.271,0,0,1-.9-.324,1.05,1.05,0,0,1-.348-.8,1.011,1.011,0,0,1,.348-.793,1.462,1.462,0,0,1,1.8,0,1.015,1.015,0,0,1,.345.793,1.042,1.042,0,0,1-.345.806A1.282,1.282,0,0,1,223.917,97.88Zm1.066,8.107h-2.16v-7h2.16Z" transform="translate(-14.757 -17.506)"/><path d="M241.963,105.987h-2.154V102.1q0-1.627-1.162-1.627a1.153,1.153,0,0,0-.923.43,1.644,1.644,0,0,0-.362,1.094v3.992H235.2v-7h2.16V100.1h.027a2.475,2.475,0,0,1,2.249-1.279q2.325,0,2.325,2.885Z" transform="translate(-14.757 -17.506)"/><path d="M258.934,105.188a3.962,3.962,0,0,1-1.128,3.018,4.57,4.57,0,0,1-3.267,1.069,5.177,5.177,0,0,1-2.242-.4v-1.818a4.293,4.293,0,0,0,2.18.629,2.347,2.347,0,0,0,1.7-.579,2.069,2.069,0,0,0,.6-1.568v-.554h-.027a2.41,2.41,0,0,1-2.181,1.176,2.624,2.624,0,0,1-2.126-.943,3.826,3.826,0,0,1-.786-2.529,4.266,4.266,0,0,1,.875-2.824,2.858,2.858,0,0,1,2.3-1.046,2.127,2.127,0,0,1,1.914.985h.027v-.814h2.16Zm-2.132-2.564v-.554a1.7,1.7,0,0,0-.394-1.132,1.274,1.274,0,0,0-1.021-.467,1.319,1.319,0,0,0-1.128.56,2.634,2.634,0,0,0-.411,1.579,2.227,2.227,0,0,0,.39,1.385,1.271,1.271,0,0,0,1.066.509,1.321,1.321,0,0,0,1.084-.517A2.111,2.111,0,0,0,256.8,102.624Z" transform="translate(-14.757 -17.506)"/></svg>